<?xml version="1.0" encoding="UTF-8" standalone="no"?>
<!-- Created with Inkscape (http://www.inkscape.org/) -->

<svg
   width="508mm"
   height="204.96793mm"
   viewBox="0 0 508 204.96793"
   version="1.1"
   id="svg1"
   xmlns="http://www.w3.org/2000/svg"
   xmlns:svg="http://www.w3.org/2000/svg">
  <defs
     id="defs1" />
  <g
     id="layer1"
     transform="translate(133.08541,-82.549987)">
    <path
       id="path493"
       d="m -15.34583,287.48794 c -5.419725,-0.16547 -14.082183,-0.96063 -23.944791,-2.19676 -5.675842,-0.71226 -11.985969,-1.42346 -14.022917,-1.57938 -5.760164,-0.44344 -5.909019,-0.50694 -0.926041,-0.39793 2.803181,0.0617 8.023225,0.4713 13.229166,1.03751 20.950423,2.27931 24.24676,2.50791 36.8324603,2.55622 5.2888621,0.0193 8.1731643,0.1129 7.2206643,0.23143 -1.7942189,0.22331 -14.5587766,0.46461 -18.3885416,0.34891 z m 248.97291,-0.61595 c -0.56763,-0.15735 -0.49318,-0.20569 0.52917,-0.34608 0.65474,-0.0896 2.02459,-0.23707 3.04271,-0.32808 1.01846,-0.0907 3.57044,-0.45051 5.67089,-0.79764 4.13809,-0.68509 5.17843,-0.69321 2.08209,-0.0151 -5.82364,1.27598 -10.06793,1.83266 -11.32486,1.48696 z M 203.2,286.70371 c -0.36372,-0.0536 -2.04364,-0.284 -3.73168,-0.50977 -3.50168,-0.4685 -5.31919,-0.9412 -5.4804,-1.4238 -0.0716,-0.21768 0.0607,-0.28364 0.38312,-0.19262 0.70554,0.19965 7.22381,1.42875 9.88729,1.86441 1.92794,0.31539 2.06024,0.36656 0.92605,0.36373 -0.72742,-0.003 -1.62031,-0.0483 -1.98438,-0.10195 z m 10.45104,-0.8876 c -0.37325,-0.16121 -0.022,-0.23706 1.19063,-0.25611 9.08968,-0.15312 18.85844,-1.0227 25.27194,-2.25036 2.61832,-0.50165 3.44522,-0.49073 1.3476,0.0167 -2.5767,0.62407 -10.37518,1.91418 -14.18413,2.34669 -3.80611,0.43286 -12.7328,0.52634 -13.62604,0.14322 z m -345.9427,-0.43108 c 0,-0.7733 12.81853,-3.91372 17.19791,-4.21429 1.23897,-0.084 0.31433,0.1778 -3.30729,0.93732 -2.76542,0.57856 -7.02098,1.57234 -9.45867,2.20734 -2.43768,0.63534 -4.43195,1.11619 -4.43195,1.06963 z m 116.284372,-0.003 c -10.653527,-0.80079 -21.162433,-1.899 -36.380208,-3.80328 -22.131152,-2.77003 -31.46036,-3.43818 -47.889584,-3.43429 -10.32687,0.003 -13.98693,0.23847 -20.34505,1.30492 -2.75061,0.46178 -10.11235,2.04364 -11.86778,2.55093 l -0.5955,0.17216 V 88.772547 l 1.65383,-0.166502 c 4.2305,-0.428625 15.17613,-0.730621 20.70346,-0.573273 7.72266,0.220477 12.290769,0.629708 25.267708,2.257081 17.045172,2.140294 24.102139,2.643002 37.022616,2.643002 7.55015,0 17.506606,-0.418756 25.551341,-1.073494 4.310592,-0.349964 10.570977,-1.237191 19.3629227,-2.74357 10.6990355,-1.832663 16.3875773,-2.451444 24.8224933,-2.700867 10.39884,-0.305858 16.728017,0.476621 55.827083,6.895756 37.807896,6.206411 47.505406,7.25665 64.161456,6.94656 7.74735,-0.14465 11.21868,-0.369362 21.16667,-1.365624 10.22104,-1.023752 23.55355,-3.454744 38.49687,-7.017094 7.16458,-1.707092 27.12543,-5.695236 33.99896,-6.790981 2.59784,-0.414496 4.60833,-0.483658 13.75833,-0.472361 13.09828,0.01376 18.41077,0.449078 43.39167,3.559175 24.18469,3.011303 33.35689,3.694642 49.60937,3.700278 10.1205,0.0029 13.44578,-0.183436 19.31459,-1.07913 2.91748,-0.445214 11.3552,-2.204879 13.29549,-2.772489 l 0.59513,-0.174969 V 281.31619 l -0.85971,0.006 c -0.47273,0.004 -2.28883,0.12137 -4.03508,0.26035 -4.32401,0.34608 -20.86187,0.33621 -25.69879,-0.0151 -2.16501,-0.1584 -9.11437,-0.9285 -15.44392,-1.71556 -18.83092,-2.33714 -24.8045,-2.7686 -38.28872,-2.7686 -8.34814,0 -19.00979,0.43286 -26.4019,1.07104 -4.13139,0.35665 -10.66308,1.29786 -19.12446,2.75449 -7.6782,1.32292 -11.48715,1.80938 -18.66545,2.38829 -13.09124,1.0541 -19.25815,0.37608 -64.76082,-7.11763 -24.6821,-4.06541 -35.21286,-5.46241 -47.19074,-6.26322 -5.34564,-0.357 -20.564471,-0.19296 -25.544988,0.27551 -9.692931,0.91088 -11.951758,1.15501 -16.271875,1.75578 -9.717616,1.35326 -20.302352,3.39973 -31.336535,6.0579 -7.091203,1.70746 -10.104966,2.33857 -22.689264,4.75686 -13.6757831,2.62644 -13.2097725,2.57564 -23.8939913,2.65147 -5.1660687,0.037 -9.9878357,0.022 -10.7156247,-0.0317 z M 1.32292,283.20566 c 0.9496689,-0.11711 -2.7202606,-0.15592 -8.2020833,-0.0896 -6.0275517,0.0744 -11.7916057,0.004 -14.6843747,-0.18346 -2.619375,-0.16791 -5.714656,-0.35947 -6.879167,-0.4244 l -2.116666,-0.1171 2.38125,0.39404 c 1.309158,0.21662 3.928877,0.50165 5.820833,0.63254 3.844925,0.26739 21.0139224,0.11324 23.680208,-0.21203 z m 16.06796,-2.31387 c -0.08818,-0.0882 -0.316785,-0.0977 -0.506941,-0.0204 -0.210953,0.084 -0.148855,0.14745 0.159808,0.15981 0.278342,0.0109 0.435345,-0.0512 0.347133,-0.13936 z m 219.19776,-0.39547 c 2.62255,-0.61595 2.99014,-0.95496 0.57185,-0.52633 -0.85302,0.15028 -3.15701,0.4064 -5.12091,0.56904 -1.96498,0.16261 -3.62127,0.34464 -3.68194,0.40391 -0.0621,0.0593 1.2333,0.10866 2.87724,0.10866 2.10714,0 3.68477,-0.16369 5.35376,-0.55528 z M 23.415628,279.83346 c 3.387381,-0.69038 10.269352,-2.43345 9.731719,-2.46663 -0.341471,-0.0204 -5.080688,1.00473 -11.583802,2.50545 -4.368086,1.00716 -3.163703,0.98247 1.852083,-0.0388 z m -18.6531247,-0.3556 c 0.9098227,-0.16121 0.3915833,-0.21907 -2.1992167,-0.24519 -2.19921661,-0.0204 -3.33057493,0.0607 -3.2247416,0.23143 0.19155833,0.3115 3.7055689,0.31996 5.4239583,0.0138 z M 339.98958,278.50771 c -2.25565,-0.20108 -5.74781,-0.60325 -7.7611,-0.89569 -3.88197,-0.56057 -5.04613,-0.6364 -3.74827,-0.24236 2.66242,0.80891 8.5965,1.4799 13.22916,1.49508 2.13183,0.007 1.95297,-0.0289 -1.71979,-0.35703 z m -435.702411,-3.99132 c -0.328083,-0.0635 -0.86397,-0.0635 -1.190625,0 -0.328083,0.0635 -0.06069,0.1143 0.595127,0.1143 0.654765,0 0.922152,-0.0508 0.595498,-0.1143 z m 2.243296,0.0262 c -0.08819,-0.0868 -0.316785,-0.0963 -0.506942,-0.0204 -0.210952,0.084 -0.148854,0.14747 0.159809,0.1598 0.278341,0.0109 0.435345,-0.0511 0.347133,-0.13933 z m 364.204615,-0.0151 c -0.18203,-0.073 -0.47942,-0.073 -0.66146,0 -0.18203,0.073 -0.0332,0.13372 0.33055,0.13372 0.36406,0 0.51294,-0.0607 0.33091,-0.13372 z m -371.20618,-0.26316 c -0.17923,-0.0716 -0.53623,-0.0759 -0.79375,-0.01 -0.25648,0.0674 -0.11043,0.12663 0.32631,0.13229 0.43709,0.004 0.6463,-0.0497 0.46744,-0.12277 z m 376.29922,-0.39124 c 1.31903,-0.17497 5.45571,-0.23143 10.98021,-0.15168 4.87434,0.0716 8.02992,0.0374 7.01146,-0.0759 -1.01812,-0.11147 -4.70993,-0.29493 -8.20208,-0.405 -5.33824,-0.16967 -6.88586,-0.12805 -9.71516,0.25366 -3.43958,0.46567 -6.15984,1.08725 -3.51401,0.80187 0.72779,-0.0787 2.27542,-0.26881 3.43958,-0.42299 z m -162.65807,-7.00362 c -0.0882,-0.0868 -0.31679,-0.0963 -0.50695,-0.0204 -0.21095,0.0854 -0.14885,0.14748 0.15981,0.15981 0.27834,0.0109 0.43535,-0.0511 0.34714,-0.13933 z m -6.47663,-0.29634 c -0.47273,-0.0579 -1.24709,-0.0579 -1.7198,0 -0.47273,0.0593 -0.0868,0.10758 0.85972,0.10758 0.94543,0 1.33278,-0.0483 0.86008,-0.10758 z m 3.43958,0.0167 c -0.18203,-0.073 -0.47943,-0.073 -0.66146,0 -0.18203,0.073 -0.0332,0.13372 0.33055,0.13372 0.36406,0 0.51294,-0.0607 0.33091,-0.13372 z M -35.586455,96.631016 c 2.825036,-0.31713 7.084484,-1.0668 6.93174,-1.219544 -0.05927,-0.05927 -1.346571,0.100542 -2.859617,0.357002 -2.288831,0.387006 -4.320117,0.461434 -12.141914,0.44204 l -9.392708,-0.02196 4.497916,0.315754 c 5.905156,0.414496 10.036519,0.454713 12.964583,0.12663 z M 339.00038,95.39348 c -0.32525,-0.0635 -0.92075,-0.0649 -1.32291,-0.0042 -0.40111,0.06067 -0.1351,0.111839 0.59232,0.114644 0.72779,0.0026 1.05693,-0.04831 0.73059,-0.110411 z M -86.651037,92.640041 c -2.0447,-0.636402 -6.993467,-1.268942 -10.847917,-1.386046 -4.492276,-0.136525 -4.357156,-0.08292 0.926042,0.373221 1.819275,0.157348 4.675716,0.500248 6.35,0.763429 1.673225,0.262096 3.340444,0.4826 3.704166,0.487891 0.605023,0.0085 0.594069,-0.01085 -0.132291,-0.238495 z M 209.21379,92.509178 c -0.0882,-0.08821 -0.31678,-0.09774 -0.50694,-0.02037 -0.21095,0.08398 -0.14885,0.147479 0.15981,0.159808 0.27834,0.01085 0.43535,-0.05114 0.34713,-0.139329 z m 3.77579,-0.753533 c 1.52824,-0.347504 4.08729,-0.93734 5.68855,-1.31199 1.6002,-0.373591 3.14888,-0.690377 3.43958,-0.702733 0.29104,-0.01376 0.38171,-0.08289 0.20285,-0.155919 -0.43957,-0.1778 -5.2451,0.773271 -9.46327,1.874308 -3.9892,1.040342 -3.91194,1.213909 0.13229,0.296334 z m 29.56595,-1.31199 c 0.22614,-0.226139 -4.61645,-0.153114 -6.01803,0.09102 -0.78388,0.136181 0.0151,0.181689 2.33574,0.134752 1.93921,-0.03844 3.59691,-0.140388 3.68229,-0.225769 z M 8.5989615,89.503855 c 1.6002005,-0.153114 3.3266855,-0.317156 3.8364585,-0.365125 0.508714,-0.04974 -0.345731,-0.107606 -1.901481,-0.130889 -1.6866131,-0.02646 -3.6007941,0.119592 -4.747313,0.360892 -2.0849167,0.43815 -2.8691417,0.8255 -1.1564144,0.570441 0.5817394,-0.08678 2.3674916,-0.282575 3.9687499,-0.435319 z M 223.63925,89.318991 c -0.18204,-0.07303 -0.47943,-0.07303 -0.66146,0 -0.18203,0.07303 -0.0332,0.13372 0.33054,0.13372 0.36407,0 0.51295,-0.06069 0.33092,-0.13372 z m 48.3235,-1.794219 c -0.31962,-0.319617 -4.22487,-0.716492 -10.55442,-1.075981 -5.65822,-0.319961 -8.23772,-0.341842 -13.36145,-0.113242 -10.9855,0.492125 -9.95469,0.644896 4.49791,0.66429 7.9502,0.01085 14.99587,0.139356 16.27188,0.294931 2.79082,0.341841 3.29353,0.377454 3.14608,0.230002 z M 18.388545,284.63689 c 0.144991,-0.0663 2.289175,-0.4826 4.7625,-0.92604 2.473669,-0.44381 6.671389,-1.28307 9.32815,-1.86478 2.65676,-0.5814 4.919477,-1.04987 5.027083,-1.03894 1.08585,0.10194 -7.983008,2.40876 -12.370858,3.14608 -2.91854,0.4907 -7.297923,0.93451 -6.746875,0.68368 z m 324.379165,-1.12466 c -3.10867,-0.21201 -11.4046,-1.21251 -14.94896,-1.80094 -2.1096,-0.35137 -4.67008,-0.7193 -5.68854,-0.82021 -1.01812,-0.0991 -2.09021,-0.28504 -2.38125,-0.41204 -1.07879,-0.47378 5.39927,0.0236 10.58333,0.81175 2.91042,0.44238 6.35707,0.9345 7.65776,1.09148 2.57844,0.31152 12.41636,0.74015 18.93287,0.8255 l 4.10104,0.0536 -3.83646,0.18593 c -3.937,0.18907 -12.06323,0.22611 -14.41979,0.0649 z M 43.854875,282.99399 c 0.182034,-0.073 0.479425,-0.073 0.661459,0 0.182033,0.073 0.03315,0.13372 -0.330915,0.13372 -0.363722,0 -0.512577,-0.0607 -0.330544,-0.13372 z m 1.322917,-0.26458 c 0.182033,-0.073 0.479425,-0.073 0.661458,0 0.182034,0.073 0.03315,0.13372 -0.330914,0.13372 -0.363723,0 -0.512577,-0.0607 -0.330544,-0.13372 z m 198.189478,-0.007 c 0.19016,-0.0759 0.41876,-0.0663 0.50694,0.022 0.0882,0.0868 -0.0688,0.15028 -0.34713,0.13793 -0.30869,-0.0124 -0.37076,-0.0744 -0.15981,-0.15981 z M 46.327142,282.5256 c 0.148855,-0.14888 20.871735,-4.20831 24.978069,-4.89199 4.697941,-0.78423 11.257491,-1.58327 16.516006,-2.0147 5.029887,-0.41206 19.541753,-0.50588 21.319413,-0.13795 0.72919,0.15028 -0.38172,0.22754 -3.57188,0.24942 -14.622275,0.0966 -25.555573,1.27635 -49.39842,5.32625 -9.194086,1.56279 -10.066496,1.69228 -9.843188,1.46897 z m -122.047369,-0.59656 c 0.190156,-0.0759 0.418756,-0.0663 0.506942,0.022 0.08821,0.0868 -0.06879,0.15028 -0.347133,0.13793 -0.308663,-0.0124 -0.370761,-0.0744 -0.159809,-0.15981 z m 327.028887,-0.0759 c 1.26788,-0.55525 5.87621,-1.35043 6.33624,-1.09431 0.54573,0.30623 0.2621,0.37782 -3.24802,0.8188 -1.31022,0.16405 -2.67865,0.3542 -3.04271,0.42156 l -0.66146,0.12277 z m -330.419072,-0.30866 c -0.800444,-0.12949 -4.026615,-0.26318 -7.169865,-0.29776 -4.361391,-0.0483 -5.8166,-0.14745 -6.148916,-0.42296 -0.752105,-0.62442 -0.214842,-0.82974 2.155481,-0.8255 3.929935,0.01 13.460597,1.19202 14.051835,1.74447 0.172165,0.16121 -1.287277,0.0607 -2.888535,-0.19825 z M 307.37987,279.5312 c -2.12373,-0.0483 -3.6382,-0.18873 -3.6382,-0.33901 0,-0.37076 4.78612,-0.28927 7.14375,0.12417 1.09148,0.19016 1.56704,0.3348 1.05833,0.32105 -0.50977,-0.0124 -2.56294,-0.0607 -4.56388,-0.10621 z m -164.10799,-4.46617 c -9.30699,-1.61501 -18.75756,-2.46414 -30.52199,-2.74248 -5.43489,-0.12946 -9.93704,-0.28787 -10.00194,-0.35277 -0.0646,-0.066 2.23943,-0.20815 5.1209,-0.31681 7.6634,-0.28927 14.01445,0.0469 22.96761,1.21674 4.1797,0.54575 15.68767,2.31915 16.13958,2.48602 0.62865,0.23284 -1.7653,0.0455 -3.70416,-0.2907 z M 117.07,97.814682 c -6.31825,-0.626903 -23.518967,-3.203945 -21.819998,-3.267075 0.364067,-0.01376 1.792817,0.159809 3.175,0.384175 10.543458,1.7145 19.186528,2.487428 30.775988,2.753413 5.35903,0.124196 9.81427,0.294931 9.89965,0.381715 0.30726,0.30726 -18.5801,0.09102 -22.03064,-0.252228 z m 15.88313,-3.293533 c -0.85408,-0.117131 0.27022,-0.19685 3.175,-0.224367 7.18925,-0.06633 15.14192,-0.522472 21.69583,-1.2446 8.07686,-0.888656 11.21868,-1.354322 26.06146,-3.856937 18.84751,-3.179233 18.76073,-2.975319 -0.30023,0.694637 -15.08405,2.904755 -22.50334,3.978275 -31.97894,4.627378 -4.21534,0.289269 -16.55551,0.290697 -18.65312,0.0029 z M -69.007906,90.753826 c -1.063996,-0.140758 -1.883834,-0.305858 -1.823165,-0.367956 0.213784,-0.212354 8.918575,0.248021 8.918575,0.471329 0,0.2921 -4.617508,0.224367 -7.09541,-0.103373 z M 327.68646,89.729704 c -2.57387,-0.214842 -9.41459,-1.248463 -9.63507,-1.455209 -0.18486,-0.173566 0.63254,-0.118533 2.80281,0.189098 1.13842,0.161211 4.52157,0.309748 7.51877,0.330544 4.26085,0.03035 5.54779,0.119962 5.89915,0.412062 0.99907,0.828305 -1.01142,0.988113 -6.58566,0.523505 z M -82.153121,89.568493 c -0.582797,-0.05503 -3.380316,-0.447675 -6.217708,-0.870664 -2.837392,-0.424736 -6.121056,-0.897097 -7.295091,-1.051613 -2.856786,-0.376079 -11.68858,-0.775759 -18.36949,-0.832221 l -5.42396,-0.04408 3.96875,-0.238496 c 8.93797,-0.534802 19.806708,0.111496 29.765624,1.770962 2.109973,0.351367 4.7625,0.720355 5.893859,0.819838 1.131358,0.09914 2.1209,0.283634 2.198158,0.409231 0.136525,0.220478 -2.374556,0.240956 -4.520142,0.03704 z M 204.52292,88.953945 c 3.40254,-1.283044 12.8792,-3.263185 16.93333,-3.537294 1.98297,-0.133694 1.68698,-0.04691 -2.51354,0.734484 -2.61938,0.487891 -6.96595,1.383585 -9.65729,1.988608 -6.44771,1.449573 -6.44771,1.449573 -4.7625,0.814202 z m -220.554894,0.04974 c 0.103346,-0.166846 0.567611,-0.30443 1.032219,-0.30443 0.464265,0 1.96215,-0.183462 3.329173,-0.403939 1.365594,-0.221906 2.5357665,-0.352769 2.5978377,-0.289269 0.1901561,0.188727 -3.6434707,1.00293 -5.4528767,1.157446 -1.238965,0.106204 -1.644307,0.0635 -1.506353,-0.159808 z M 360.09792,87.915032 c 2.69134,-0.549989 6.9469,-1.535297 9.45337,-2.19112 2.50825,-0.654738 4.50075,-1.095719 4.42913,-0.979646 -0.35137,0.56761 -7.45101,2.408766 -13.70187,3.551052 -5.58097,1.021292 -5.71043,0.748242 -0.18063,-0.380286 z m -42.9119,0.07443 c 0.19015,-0.07586 0.41875,-0.06633 0.50694,0.02196 0.0882,0.08678 -0.0688,0.150283 -0.34713,0.137927 -0.30867,-0.01244 -0.37076,-0.07443 -0.15981,-0.159808 z M -1.9014777,87.19571 c 0.190156,-0.07586 0.418756,-0.06633 0.5069417,0.02196 0.088212,0.08678 -0.068792,0.150284 -0.3471334,0.137927 -0.3086629,-0.01243 -0.3707606,-0.07443 -0.1598083,-0.159808 z M 0.26458665,86.710649 C 2.4930927,86.116554 11.94893,84.540007 15.193093,84.221793 c 3.395477,-0.333375 12.566279,-0.373248 13.065124,-0.05786 0.192961,0.122766 -2.450041,0.300566 -5.953125,0.401108 -6.383178,0.18452 -13.0707865,0.826929 -18.6009221,1.788583 -4.1560749,0.722154 -5.2225309,0.832221 -3.43958325,0.357029 z M 292.23229,86.549412 c -1.31022,-0.125571 -6.37045,-0.649102 -11.24479,-1.165913 -14.70626,-1.558581 -15.83619,-1.667245 -20.50521,-1.980141 -2.47332,-0.165471 -8.72421,-0.30869 -13.89062,-0.319617 -6.45867,-0.0127 -8.938,-0.09102 -7.9375,-0.253656 0.80078,-0.129461 5.92031,-0.253656 11.37708,-0.275511 11.59899,-0.04834 16.15334,0.261752 30.29479,2.066925 8.41304,1.074896 15.31692,1.807977 19.18229,2.040811 0.80082,0.04834 0.0265,0.09385 -1.71979,0.100541 -1.7459,0.0071 -4.24709,-0.08818 -5.55625,-0.213439 z M -4.7624966,85.03917 c 1.0914856,-0.674158 12.1859938,-2.413 13.1162688,-2.056341 0.784225,0.300566 0.2783416,0.42582 -2.8236333,0.704162 -2.5519856,0.228944 -4.85597725,0.567954 -9.8957605,1.45661 -0.55245,0.09665 -0.6738144,0.0649 -0.396875,-0.104431 z M 44.714586,84.841976 c -0.800444,-0.198622 -3.417358,-0.669925 -5.8166,-1.045977 -4.602691,-0.724958 -5.720291,-1.019889 -2.893827,-0.764831 5.652558,0.508715 10.828496,1.364192 11.846983,1.959689 0.658627,0.384519 -1.372658,0.287867 -3.136556,-0.148881 z"
       style="fill:#e18e26;fill-opacity:1;fill-rule:nonzero;stroke:none;stroke-width:0.352777" />
  </g>
</svg>
